<svg xmlns="http://www.w3.org/2000/svg" width="26" height="26" fill="none"><path fill="#E3E4E6" fill-opacity="0.55" d="M12.821 2.44c3.338 0 3.733.013 5.052.073 3.388.154 4.97 1.762 5.124 5.124.06 1.318.072 1.714.072 5.051 0 3.339-.012 3.733-.072 5.051-.155 3.36-1.733 4.97-5.124 5.124-1.319.06-1.712.073-5.052.073-3.337 0-3.733-.012-5.051-.073-3.396-.155-4.97-1.77-5.124-5.125-.06-1.318-.073-1.712-.073-5.051 0-3.337.014-3.732.073-5.051.155-3.361 1.733-4.97 5.124-5.124 1.319-.06 1.714-.072 5.051-.072zm0-2.253c-3.395 0-3.82.015-5.153.075C3.128.47.605 2.989.398 7.532.335 8.868.32 9.293.32 12.688c0 3.395.015 3.82.075 5.154.208 4.54 2.727 7.063 7.27 7.271 1.335.06 1.76.075 5.155.075 3.395 0 3.82-.015 5.154-.075 4.536-.208 7.065-2.727 7.27-7.27.061-1.334.076-1.76.076-5.155 0-3.395-.015-3.82-.075-5.153-.204-4.536-2.726-7.063-7.27-7.27-1.334-.062-1.76-.077-5.155-.077zm0 6.081a6.419 6.419 0 1 0 0 12.838 6.419 6.419 0 0 0 0-12.838zm0 10.586a4.166 4.166 0 1 1 0-8.333 4.166 4.166 0 0 1 0 8.333zm6.673-12.339a1.5 1.5 0 1 0 0 3.001 1.5 1.5 0 0 0 0-3z"/></svg>